<?xml version="1.0" encoding="UTF-8"?>
<svg xmlns="http://www.w3.org/2000/svg" xmlns:xlink="http://www.w3.org/1999/xlink" viewBox="0 0 380.49 116.12">
  <defs>
    <style>
      .cls-1 {
        fill: url(#New_Gradient_Swatch_157-10);
      }

      .cls-1, .cls-2, .cls-3, .cls-4, .cls-5, .cls-6, .cls-7, .cls-8, .cls-9, .cls-10, .cls-11, .cls-12, .cls-13, .cls-14, .cls-15, .cls-16, .cls-17, .cls-18, .cls-19, .cls-20, .cls-21, .cls-22, .cls-23, .cls-24, .cls-25, .cls-26, .cls-27, .cls-28, .cls-29, .cls-30, .cls-31, .cls-32, .cls-33, .cls-34, .cls-35, .cls-36, .cls-37, .cls-38, .cls-39, .cls-40, .cls-41, .cls-42, .cls-43, .cls-44, .cls-45, .cls-46, .cls-47, .cls-48, .cls-49, .cls-50, .cls-51, .cls-52, .cls-53, .cls-54, .cls-55, .cls-56, .cls-57, .cls-58, .cls-59, .cls-60, .cls-61, .cls-62, .cls-63, .cls-64, .cls-65, .cls-66, .cls-67, .cls-68, .cls-69, .cls-70, .cls-71, .cls-72, .cls-73, .cls-74, .cls-75, .cls-76, .cls-77, .cls-78, .cls-79, .cls-80, .cls-81, .cls-82, .cls-83, .cls-84, .cls-85, .cls-86, .cls-87, .cls-88, .cls-89, .cls-90, .cls-91, .cls-92, .cls-93, .cls-94, .cls-95, .cls-96, .cls-97, .cls-98, .cls-99, .cls-100, .cls-101, .cls-102, .cls-103, .cls-104 {
        fill-rule: evenodd;
      }

      .cls-2 {
        fill: url(#radial-gradient-4);
      }

      .cls-3 {
        fill: url(#radial-gradient-15);
      }

      .cls-4 {
        fill: url(#radial-gradient-51);
      }

      .cls-5 {
        fill: url(#radial-gradient-36);
      }

      .cls-6 {
        fill: #75bdef;
      }

      .cls-7 {
        fill: url(#linear-gradient-10);
      }

      .cls-105 {
        filter: url(#drop-shadow-2);
        font-size: 5.84px;
      }

      .cls-105, .cls-106 {
        fill: #fff;
        font-family: SnapITC-Regular, 'Snap ITC';
      }

      .cls-8 {
        fill: url(#radial-gradient-9);
      }

      .cls-9 {
        fill: url(#radial-gradient-58);
      }

      .cls-10 {
        fill: url(#radial-gradient-45);
      }

      .cls-106 {
        filter: url(#drop-shadow-1);
        font-size: 5.89px;
      }

      .cls-11 {
        fill: #1e5199;
      }

      .cls-11, .cls-13, .cls-32, .cls-39, .cls-46, .cls-53 {
        mix-blend-mode: multiply;
      }

      .cls-11, .cls-48, .cls-52 {
        opacity: .5;
      }

      .cls-12 {
        fill: url(#New_Gradient_Swatch_157);
      }

      .cls-13 {
        fill: url(#linear-gradient-12);
      }

      .cls-107 {
        letter-spacing: -.03em;
      }

      .cls-14 {
        fill: url(#radial-gradient-53);
      }

      .cls-15 {
        fill: url(#New_Gradient_Swatch_157-6);
      }

      .cls-16 {
        fill: url(#radial-gradient-63);
      }

      .cls-17 {
        fill: url(#New_Gradient_Swatch_157-3);
      }

      .cls-18 {
        fill: url(#radial-gradient-39);
      }

      .cls-19 {
        fill: url(#radial-gradient-2);
      }

      .cls-20 {
        fill: url(#New_Gradient_Swatch_157-5);
      }

      .cls-21 {
        fill: url(#New_Gradient_Swatch_157-7);
      }

      .cls-22 {
        fill: url(#radial-gradient-65);
      }

      .cls-23 {
        fill: url(#radial-gradient-49);
      }

      .cls-24 {
        fill: url(#radial-gradient-21);
      }

      .cls-25 {
        fill: url(#radial-gradient-48);
      }

      .cls-26 {
        fill: #739ff4;
      }

      .cls-27 {
        fill: url(#radial-gradient-26);
      }

      .cls-27, .cls-33, .cls-42, .cls-52, .cls-65, .cls-88, .cls-89, .cls-100 {
        mix-blend-mode: screen;
      }

      .cls-28 {
        fill: url(#radial-gradient-19);
      }

      .cls-29 {
        fill: url(#linear-gradient-3);
      }

      .cls-30 {
        fill: url(#radial-gradient-59);
      }

      .cls-31 {
        fill: url(#radial-gradient-20);
      }

      .cls-32 {
        fill: url(#radial-gradient-28);
        opacity: .15;
      }

      .cls-33 {
        fill: url(#radial-gradient-31);
      }

      .cls-34 {
        fill: url(#radial-gradient-40);
      }

      .cls-35 {
        fill: url(#radial-gradient-10);
      }

      .cls-36 {
        fill: url(#radial-gradient-47);
      }

      .cls-37 {
        fill: url(#radial-gradient-68);
      }

      .cls-38 {
        fill: url(#radial-gradient-16);
      }

      .cls-108 {
        isolation: isolate;
      }

      .cls-39 {
        fill: url(#radial-gradient-22);
      }

      .cls-40 {
        fill: url(#radial-gradient-18);
      }

      .cls-41 {
        fill: url(#radial-gradient-33);
      }

      .cls-42 {
        fill: url(#radial-gradient-27);
      }

      .cls-43 {
        fill: url(#linear-gradient-5);
      }

      .cls-44 {
        fill: #9bc9ff;
      }

      .cls-45 {
        fill: url(#radial-gradient-3);
      }

      .cls-46 {
        fill: #37506b;
        opacity: .25;
      }

      .cls-47 {
        fill: url(#New_Gradient_Swatch_157-9);
      }

      .cls-48 {
        fill: #ebfaff;
      }

      .cls-49 {
        fill: url(#linear-gradient-2);
      }

      .cls-50 {
        fill: url(#radial-gradient-54);
      }

      .cls-51 {
        fill: url(#radial-gradient-43);
      }

      .cls-52 {
        fill: #c8faff;
      }

      .cls-53 {
        fill: url(#radial-gradient-23);
      }

      .cls-54 {
        fill: url(#New_Gradient_Swatch_157-2);
      }

      .cls-55 {
        fill: url(#radial-gradient-56);
      }

      .cls-56 {
        fill: url(#radial-gradient-11);
      }

      .cls-109 {
        letter-spacing: -.02em;
      }

      .cls-57 {
        fill: url(#radial-gradient-8);
      }

      .cls-58 {
        fill: url(#radial-gradient-41);
      }

      .cls-59 {
        fill: url(#linear-gradient-9);
      }

      .cls-60 {
        fill: url(#New_Gradient_Swatch_157-13);
      }

      .cls-61 {
        fill: url(#linear-gradient-6);
      }

      .cls-62 {
        fill: url(#radial-gradient-32);
      }

      .cls-63 {
        fill: url(#New_Gradient_Swatch_157-12);
      }

      .cls-64 {
        fill: url(#radial-gradient-62);
      }

      .cls-65 {
        fill: url(#radial-gradient-25);
      }

      .cls-66 {
        fill: url(#linear-gradient-4);
      }

      .cls-67 {
        fill: url(#radial-gradient-7);
      }

      .cls-68 {
        fill: url(#radial-gradient-30);
      }

      .cls-69 {
        fill: url(#radial-gradient-35);
      }

      .cls-70 {
        fill: url(#radial-gradient-60);
      }

      .cls-71 {
        fill: url(#radial-gradient-67);
      }

      .cls-72 {
        fill: url(#radial-gradient-17);
      }

      .cls-73 {
        fill: url(#radial-gradient-37);
      }

      .cls-74 {
        fill: url(#New_Gradient_Swatch_161);
      }

      .cls-75 {
        fill: url(#radial-gradient-44);
      }

      .cls-76 {
        fill: url(#radial-gradient-13);
      }

      .cls-110 {
        letter-spacing: 0em;
      }

      .cls-111 {
        letter-spacing: -.02em;
      }

      .cls-77 {
        fill: url(#radial-gradient-14);
      }

      .cls-78 {
        fill: url(#radial-gradient-57);
      }

      .cls-79 {
        fill: url(#radial-gradient-42);
      }

      .cls-80 {
        fill: url(#radial-gradient-66);
      }

      .cls-81 {
        fill: url(#New_Gradient_Swatch_157-14);
      }

      .cls-82 {
        fill: url(#linear-gradient-7);
      }

      .cls-83 {
        fill: url(#New_Gradient_Swatch_157-4);
      }

      .cls-84 {
        fill: url(#New_Gradient_Swatch_157-11);
      }

      .cls-85 {
        fill: url(#linear-gradient-8);
      }

      .cls-86 {
        fill: url(#radial-gradient-50);
      }

      .cls-87 {
        fill: url(#radial-gradient-38);
      }

      .cls-88 {
        fill: #6ecff9;
      }

      .cls-89 {
        fill: url(#radial-gradient-24);
      }

      .cls-90 {
        fill: url(#radial-gradient-55);
      }

      .cls-91 {
        fill: url(#radial-gradient);
      }

      .cls-92 {
        fill: url(#radial-gradient-52);
      }

      .cls-93 {
        fill: url(#radial-gradient-34);
      }

      .cls-94 {
        fill: url(#radial-gradient-64);
      }

      .cls-95 {
        fill: url(#linear-gradient-11);
      }

      .cls-96 {
        fill: url(#radial-gradient-46);
      }

      .cls-97 {
        fill: url(#linear-gradient);
      }

      .cls-98 {
        fill: url(#radial-gradient-6);
      }

      .cls-99 {
        fill: url(#radial-gradient-61);
      }

      .cls-100 {
        fill: url(#radial-gradient-29);
      }

      .cls-101 {
        fill: url(#radial-gradient-5);
      }

      .cls-102 {
        fill: url(#New_Gradient_Swatch_157-8);
      }

      .cls-103 {
        fill: #b3deff;
      }

      .cls-104 {
        fill: url(#radial-gradient-12);
      }
    </style>
    <radialGradient id="New_Gradient_Swatch_157" data-name="New Gradient Swatch 157" cx="141.28" cy="139.92" fx="141.28" fy="139.92" r="20.37" gradientTransform="translate(0 11.73) scale(1 .4)" gradientUnits="userSpaceOnUse">
      <stop offset="0" stop-color="#b0e4ff"/>
      <stop offset="1" stop-color="#739ff4"/>
    </radialGradient>
    <radialGradient id="New_Gradient_Swatch_157-2" data-name="New Gradient Swatch 157" cx="140.64" cy="111.03" fx="140.64" fy="111.03" r="18.07" gradientTransform="translate(0 8.72) scale(1 .52)" xlink:href="#New_Gradient_Swatch_157"/>
    <radialGradient id="New_Gradient_Swatch_157-3" data-name="New Gradient Swatch 157" cx="143.49" cy="100.42" fx="143.49" fy="100.42" r="18.3" gradientTransform="translate(0 8.72) scale(1 .52)" xlink:href="#New_Gradient_Swatch_157"/>
    <radialGradient id="New_Gradient_Swatch_157-4" data-name="New Gradient Swatch 157" cx="133.6" cy="79.29" fx="133.6" fy="79.29" r="25.59" gradientTransform="translate(0 8.72) scale(1 .52)" xlink:href="#New_Gradient_Swatch_157"/>
    <radialGradient id="New_Gradient_Swatch_157-5" data-name="New Gradient Swatch 157" cx="142.76" cy="77.57" fx="142.76" fy="77.57" r="14.7" gradientTransform="translate(0 8.72) scale(1 .52)" xlink:href="#New_Gradient_Swatch_157"/>
    <radialGradient id="radial-gradient" cx="150.5" cy="50.77" fx="150.5" fy="50.77" r="4.18" gradientUnits="userSpaceOnUse">
      <stop offset="0" stop-color="#c8faff"/>
      <stop offset="1" stop-color="#9bc9ff"/>
    </radialGradient>
    <radialGradient id="radial-gradient-2" cx="150.91" cy="44.38" fx="150.91" fy="44.38" r="16.48" gradientUnits="userSpaceOnUse">
      <stop offset="0" stop-color="#e5faff"/>
      <stop offset="1" stop-color="#b7ecff"/>
    </radialGradient>
    <radialGradient id="radial-gradient-3" cx="182.16" cy="44.68" fx="182.16" fy="44.68" r="14.93" xlink:href="#radial-gradient-2"/>
    <radialGradient id="radial-gradient-4" cx="186.96" cy="45.27" fx="186.96" fy="45.27" r="10.03" xlink:href="#radial-gradient"/>
    <radialGradient id="radial-gradient-5" cx="214.07" cy="42.65" fx="214.07" fy="42.65" r="21.03" xlink:href="#radial-gradient"/>
    <radialGradient id="New_Gradient_Swatch_157-6" data-name="New Gradient Swatch 157" cx="232.93" cy="64.93" fx="232.93" fy="64.93" r="18.75" gradientTransform="translate(0 8.72) scale(1 .52)" xlink:href="#New_Gradient_Swatch_157"/>
    <radialGradient id="New_Gradient_Swatch_157-7" data-name="New Gradient Swatch 157" cx="240.33" cy="84.4" fx="240.33" fy="84.4" r="19.79" gradientTransform="translate(0 8.72) scale(1 .52)" xlink:href="#New_Gradient_Swatch_157"/>
    <radialGradient id="New_Gradient_Swatch_157-8" data-name="New Gradient Swatch 157" cx="234.59" cy="92.92" fx="234.59" fy="92.92" r="22.46" gradientTransform="translate(0 8.72) scale(1 .52)" xlink:href="#New_Gradient_Swatch_157"/>
    <radialGradient id="New_Gradient_Swatch_157-9" data-name="New Gradient Swatch 157" cx="237.78" cy="115.44" fx="237.78" fy="115.44" r="12.98" gradientTransform="translate(0 8.72) scale(1 .52)" xlink:href="#New_Gradient_Swatch_157"/>
    <radialGradient id="New_Gradient_Swatch_157-10" data-name="New Gradient Swatch 157" cx="240.79" cy="131.48" fx="240.79" fy="131.48" r="19.9" gradientTransform="translate(0 8.72) scale(1 .52)" xlink:href="#New_Gradient_Swatch_157"/>
    <radialGradient id="New_Gradient_Swatch_157-11" data-name="New Gradient Swatch 157" cx="233.07" cy="141.77" fx="233.07" fy="141.77" r="16.02" gradientTransform="translate(0 8.72) scale(1 .52)" xlink:href="#New_Gradient_Swatch_157"/>
    <radialGradient id="New_Gradient_Swatch_157-12" data-name="New Gradient Swatch 157" cx="207.81" cy="143.01" fx="207.81" fy="143.01" r="16.62" gradientTransform="translate(0 8.72) scale(1 .52)" xlink:href="#New_Gradient_Swatch_157"/>
    <radialGradient id="New_Gradient_Swatch_157-13" data-name="New Gradient Swatch 157" cx="193.83" cy="145.17" fx="193.83" fy="145.17" r="29.31" gradientTransform="translate(0 8.72) scale(1 .52)" xlink:href="#New_Gradient_Swatch_157"/>
    <radialGradient id="New_Gradient_Swatch_157-14" data-name="New Gradient Swatch 157" cx="148.43" cy="143.25" fx="148.43" fy="143.25" r="30.62" gradientTransform="translate(0 8.72) scale(1 .52)" xlink:href="#New_Gradient_Swatch_157"/>
    <radialGradient id="radial-gradient-6" cx="161.65" cy="140" fx="161.65" fy="140" r="38.26" gradientTransform="translate(0 8.72) scale(1 .52)" gradientUnits="userSpaceOnUse">
      <stop offset="0" stop-color="#d9f3ff"/>
      <stop offset="1" stop-color="#73aef5"/>
    </radialGradient>
    <radialGradient id="radial-gradient-7" cx="162.81" cy="101.49" fx="162.81" fy="101.49" r="26.32" gradientTransform="translate(0 8.72) scale(1 .52)" gradientUnits="userSpaceOnUse">
      <stop offset="0" stop-color="#8fbcff"/>
      <stop offset="1" stop-color="#b0e4ff"/>
    </radialGradient>
    <radialGradient id="radial-gradient-8" cx="148.49" cy="91.1" fx="148.49" fy="91.1" r="14.63" xlink:href="#radial-gradient-7"/>
    <radialGradient id="radial-gradient-9" cx="156.24" cy="69.75" fx="156.24" fy="69.75" r="47.35" xlink:href="#radial-gradient-7"/>
    <radialGradient id="radial-gradient-10" cx="155.97" cy="61.07" fx="155.97" fy="61.07" r="18.86" gradientTransform="matrix(1,0,0,1,0,0)" xlink:href="#radial-gradient-6"/>
    <radialGradient id="radial-gradient-11" cx="169.14" cy="106.16" fx="169.14" fy="106.16" r="45.07" xlink:href="#radial-gradient-7"/>
    <radialGradient id="radial-gradient-12" cx="197.36" cy="114.61" fx="197.36" fy="114.61" r="27.46" xlink:href="#radial-gradient-7"/>
    <radialGradient id="radial-gradient-13" cx="195.45" cy="91.76" fx="195.45" fy="91.76" r="39.13" gradientTransform="translate(0 8.72) scale(1 .52)" gradientUnits="userSpaceOnUse">
      <stop offset="0" stop-color="#b4e5ff"/>
      <stop offset="1" stop-color="#9bc9ff"/>
    </radialGradient>
    <radialGradient id="radial-gradient-14" cx="207.54" cy="59.98" fx="207.54" fy="59.98" r="24.1" gradientTransform="matrix(1,0,0,1,0,0)" xlink:href="#radial-gradient-6"/>
    <radialGradient id="radial-gradient-15" cx="155.96" cy="69.43" fx="155.96" fy="69.43" r="79.8" gradientTransform="translate(0 8.7) scale(1 .52)" gradientUnits="userSpaceOnUse">
      <stop offset="0" stop-color="#fffaff"/>
      <stop offset="1" stop-color="#cff2ff"/>
    </radialGradient>
    <radialGradient id="radial-gradient-16" cx="225.85" cy="43.61" fx="225.85" fy="43.61" r="10.6" xlink:href="#radial-gradient"/>
    <radialGradient id="radial-gradient-17" cx="190.34" cy="60.56" fx="190.34" fy="60.56" r="81.27" xlink:href="#radial-gradient-7"/>
    <radialGradient id="radial-gradient-18" cx="215.36" cy="114.2" fx="215.36" fy="114.2" r="37.03" xlink:href="#radial-gradient-7"/>
    <radialGradient id="radial-gradient-19" cx="230.62" cy="142.14" fx="230.62" fy="142.14" r="25.93" gradientTransform="translate(0 8.72) scale(1 .52)" gradientUnits="userSpaceOnUse">
      <stop offset="0" stop-color="#b0e4ff"/>
      <stop offset="1" stop-color="#739ff4"/>
    </radialGradient>
    <linearGradient id="linear-gradient" x1="188.47" y1="77.29" x2="188.47" y2="48.15" gradientUnits="userSpaceOnUse">
      <stop offset="0" stop-color="#1440b3"/>
      <stop offset=".18" stop-color="#1149ba"/>
      <stop offset=".48" stop-color="#0c63cd"/>
      <stop offset=".86" stop-color="#038cec"/>
      <stop offset="1" stop-color="#009efa"/>
    </linearGradient>
    <radialGradient id="radial-gradient-20" cx="188.47" cy="105.56" fx="188.47" fy="105.56" r="44.86" gradientTransform="translate(0 6.66) scale(1 .53)" gradientUnits="userSpaceOnUse">
      <stop offset="0" stop-color="#1b7ee0"/>
      <stop offset=".2" stop-color="#1a76d6"/>
      <stop offset=".53" stop-color="#1a62bd"/>
      <stop offset=".81" stop-color="#1a4da3"/>
      <stop offset="1" stop-color="#0140a6"/>
    </radialGradient>
    <radialGradient id="radial-gradient-21" cx="176.42" cy="53.77" fx="176.42" fy="53.77" r="77.38" gradientTransform="translate(0 8.72) scale(1 .52)" gradientUnits="userSpaceOnUse">
      <stop offset="0" stop-color="#e8fbff"/>
      <stop offset=".93" stop-color="#c9f6ff"/>
    </radialGradient>
    <radialGradient id="radial-gradient-22" cx="189.49" cy="62.58" fx="189.49" fy="62.58" r="50.67" gradientTransform="translate(0 8.72) scale(1 .52)" gradientUnits="userSpaceOnUse">
      <stop offset="0" stop-color="#fff"/>
      <stop offset="1" stop-color="#91d7ff"/>
    </radialGradient>
    <radialGradient id="radial-gradient-23" cx="187.87" cy="78.07" fx="187.87" fy="78.07" r="45.83" xlink:href="#radial-gradient-22"/>
    <radialGradient id="radial-gradient-24" cx="202.03" cy="55.64" fx="202.03" fy="55.64" r="30.1" gradientTransform="translate(0 8.72) scale(1 .52)" gradientUnits="userSpaceOnUse">
      <stop offset="0" stop-color="#000"/>
      <stop offset=".16" stop-color="#404040"/>
      <stop offset=".33" stop-color="#7a7a7a"/>
      <stop offset=".49" stop-color="#a9a9a9"/>
      <stop offset=".64" stop-color="#cecece"/>
      <stop offset=".78" stop-color="#e9e9e9"/>
      <stop offset=".9" stop-color="#f9f9f9"/>
      <stop offset="1" stop-color="#fff"/>
    </radialGradient>
    <radialGradient id="radial-gradient-25" cx="191.09" cy="99.17" fx="191.09" fy="99.17" r="49.17" xlink:href="#radial-gradient-24"/>
    <radialGradient id="radial-gradient-26" cx="218.19" cy="60.19" fx="218.19" fy="60.19" r="27.25" gradientTransform="translate(0 8.72) scale(1 .52)" gradientUnits="userSpaceOnUse">
      <stop offset="0" stop-color="#fff"/>
      <stop offset=".1" stop-color="#f9f9f9"/>
      <stop offset=".22" stop-color="#e9e9e9"/>
      <stop offset=".36" stop-color="#cecece"/>
      <stop offset=".51" stop-color="#a9a9a9"/>
      <stop offset=".67" stop-color="#7a7a7a"/>
      <stop offset=".84" stop-color="#404040"/>
      <stop offset="1" stop-color="#000"/>
    </radialGradient>
    <radialGradient id="radial-gradient-27" cx="148" cy="61.33" fx="148" fy="61.33" r="27.28" xlink:href="#radial-gradient-26"/>
    <radialGradient id="radial-gradient-28" cx="190.16" cy="108.24" fx="190.16" fy="108.24" r="106.91" gradientUnits="userSpaceOnUse">
      <stop offset=".45" stop-color="#fff"/>
      <stop offset=".55" stop-color="#3771a8"/>
      <stop offset=".57" stop-color="#5e8db9"/>
      <stop offset=".6" stop-color="#8fafce"/>
      <stop offset=".64" stop-color="#b7ccdf"/>
      <stop offset=".67" stop-color="#d6e2ed"/>
      <stop offset=".7" stop-color="#ecf2f7"/>
      <stop offset=".73" stop-color="#fafbfd"/>
      <stop offset=".75" stop-color="#fff"/>
    </radialGradient>
    <linearGradient id="linear-gradient-2" x1="155.05" y1="54.32" x2="164.58" y2="50.46" gradientUnits="userSpaceOnUse">
      <stop offset="0" stop-color="#910001"/>
      <stop offset=".06" stop-color="#9e0002"/>
      <stop offset=".18" stop-color="#b40003"/>
      <stop offset=".3" stop-color="#c20004"/>
      <stop offset=".41" stop-color="#c70005"/>
      <stop offset=".5" stop-color="#c00004"/>
      <stop offset=".62" stop-color="#af0003"/>
      <stop offset=".76" stop-color="#930002"/>
      <stop offset=".91" stop-color="#6b0001"/>
      <stop offset="1" stop-color="#520000"/>
    </linearGradient>
    <linearGradient id="linear-gradient-3" x1="153.74" y1="51.53" x2="158.83" y2="49.48" gradientUnits="userSpaceOnUse">
      <stop offset="0" stop-color="#910001"/>
      <stop offset=".39" stop-color="#ff4745"/>
      <stop offset=".61" stop-color="#d82129"/>
      <stop offset=".79" stop-color="#be0916"/>
      <stop offset=".9" stop-color="#b50010"/>
    </linearGradient>
    <radialGradient id="radial-gradient-29" cx="147.22" cy="37.8" fx="147.22" fy="37.8" r="21.14" gradientUnits="userSpaceOnUse">
      <stop offset="0" stop-color="#ffa4da"/>
      <stop offset="1" stop-color="#000"/>
    </radialGradient>
    <linearGradient id="linear-gradient-4" x1="160.81" y1="52.07" x2="165.42" y2="52.07" gradientUnits="userSpaceOnUse">
      <stop offset="0" stop-color="#910001"/>
      <stop offset="1" stop-color="#e02120"/>
    </linearGradient>
    <radialGradient id="radial-gradient-30" cx="139.63" cy="52.42" fx="139.63" fy="52.42" r="61.66" gradientUnits="userSpaceOnUse">
      <stop offset=".33" stop-color="#e00c12"/>
      <stop offset=".37" stop-color="#ff5c64"/>
      <stop offset=".37" stop-color="#fa555c"/>
      <stop offset=".39" stop-color="#ee4146"/>
      <stop offset=".41" stop-color="#e63336"/>
      <stop offset=".43" stop-color="#e12b2c"/>
      <stop offset=".46" stop-color="#e0292a"/>
      <stop offset=".64" stop-color="#e03c35"/>
      <stop offset=".84" stop-color="#e04b3e"/>
      <stop offset="1" stop-color="#e05142"/>
    </radialGradient>
    <linearGradient id="linear-gradient-5" x1="153.58" y1="51.11" x2="158.6" y2="49.08" gradientUnits="userSpaceOnUse">
      <stop offset="0" stop-color="#2286c7"/>
      <stop offset=".2" stop-color="#75b5dd"/>
      <stop offset=".38" stop-color="#b7dbef"/>
      <stop offset=".5" stop-color="#e0f3fa"/>
      <stop offset=".57" stop-color="#f0fcff"/>
      <stop offset=".62" stop-color="#eaf7fd"/>
      <stop offset=".68" stop-color="#d9ebf9"/>
      <stop offset=".75" stop-color="#bdd7f2"/>
      <stop offset=".82" stop-color="#97bce9"/>
      <stop offset=".91" stop-color="#6699dc"/>
      <stop offset=".93" stop-color="#568ed9"/>
    </linearGradient>
    <linearGradient id="New_Gradient_Swatch_161" data-name="New Gradient Swatch 161" x1="212.36" y1="50.46" x2="221.89" y2="54.32" gradientUnits="userSpaceOnUse">
      <stop offset="0" stop-color="#520000"/>
      <stop offset=".09" stop-color="#6b0001"/>
      <stop offset=".24" stop-color="#930002"/>
      <stop offset=".38" stop-color="#af0003"/>
      <stop offset=".5" stop-color="#c00004"/>
      <stop offset=".59" stop-color="#c70005"/>
      <stop offset=".7" stop-color="#c20004"/>
      <stop offset=".82" stop-color="#b40003"/>
      <stop offset=".94" stop-color="#9e0002"/>
      <stop offset="1" stop-color="#910001"/>
    </linearGradient>
    <linearGradient id="linear-gradient-6" x1="218.11" y1="49.48" x2="223.2" y2="51.53" gradientUnits="userSpaceOnUse">
      <stop offset=".1" stop-color="#b50010"/>
      <stop offset=".21" stop-color="#be0916"/>
      <stop offset=".39" stop-color="#d82129"/>
      <stop offset=".61" stop-color="#ff4745"/>
      <stop offset="1" stop-color="#910001"/>
    </linearGradient>
    <radialGradient id="radial-gradient-31" cx="224.67" cy="37.93" fx="224.67" fy="37.93" r="17.1" xlink:href="#radial-gradient-29"/>
    <linearGradient id="linear-gradient-7" x1="211.53" y1="52.07" x2="216.13" y2="52.07" gradientUnits="userSpaceOnUse">
      <stop offset="0" stop-color="#e02120"/>
      <stop offset="1" stop-color="#910001"/>
    </linearGradient>
    <linearGradient id="linear-gradient-8" x1="218.34" y1="49.08" x2="223.36" y2="51.11" gradientUnits="userSpaceOnUse">
      <stop offset=".07" stop-color="#568ed9"/>
      <stop offset=".09" stop-color="#6699dc"/>
      <stop offset=".18" stop-color="#97bce9"/>
      <stop offset=".25" stop-color="#bdd7f2"/>
      <stop offset=".32" stop-color="#d9ebf9"/>
      <stop offset=".38" stop-color="#eaf7fd"/>
      <stop offset=".43" stop-color="#f0fcff"/>
      <stop offset=".5" stop-color="#e0f3fa"/>
      <stop offset=".62" stop-color="#b7dbef"/>
      <stop offset=".8" stop-color="#75b5dd"/>
      <stop offset="1" stop-color="#2286c7"/>
    </linearGradient>
    <linearGradient id="linear-gradient-9" x1="157.41" y1="44.53" x2="188.47" y2="44.53" gradientUnits="userSpaceOnUse">
      <stop offset="0" stop-color="#6e9cc7"/>
      <stop offset=".07" stop-color="#e1f1ff"/>
      <stop offset=".18" stop-color="#b2d3de"/>
      <stop offset="1" stop-color="#fff"/>
    </linearGradient>
    <radialGradient id="radial-gradient-32" cx="75.13" fx="75.13" r="61.66" gradientTransform="translate(312.44) rotate(-180) scale(1 -1)" xlink:href="#radial-gradient-30"/>
    <linearGradient id="linear-gradient-10" x1="188.47" y1="44.53" x2="219.54" y2="44.53" gradientUnits="userSpaceOnUse">
      <stop offset="0" stop-color="#fff"/>
      <stop offset=".82" stop-color="#b2d3de"/>
      <stop offset=".93" stop-color="#e1f1ff"/>
      <stop offset="1" stop-color="#6e9cc7"/>
    </linearGradient>
    <filter id="drop-shadow-1" filterUnits="userSpaceOnUse">
      <feOffset dx="0" dy=".5"/>
      <feGaussianBlur result="blur" stdDeviation="0"/>
      <feFlood flood-color="#000" flood-opacity=".75"/>
      <feComposite in2="blur" operator="in"/>
      <feComposite in="SourceGraphic"/>
    </filter>
    <radialGradient id="radial-gradient-33" cx="165.67" cy="60.42" fx="165.67" fy="60.42" r="8.42" gradientUnits="userSpaceOnUse">
      <stop offset="0" stop-color="#b0e4ff"/>
      <stop offset="1" stop-color="#739ff4"/>
    </radialGradient>
    <radialGradient id="radial-gradient-34" cx="165.75" cy="57.79" fx="165.75" fy="57.79" r="5.87" gradientUnits="userSpaceOnUse">
      <stop offset="0" stop-color="#e5faff"/>
      <stop offset="1" stop-color="#9bcfff"/>
    </radialGradient>
    <radialGradient id="radial-gradient-35" cx="169.28" cy="55.53" fx="169.28" fy="55.53" r="4.78" xlink:href="#radial-gradient-34"/>
    <radialGradient id="radial-gradient-36" cx="170.85" cy="49.86" fx="170.85" fy="49.86" r="8.8" xlink:href="#radial-gradient-2"/>
    <radialGradient id="radial-gradient-37" cx="179.25" cy="47.23" fx="179.25" fy="47.23" r="11.22" gradientUnits="userSpaceOnUse">
      <stop offset="0" stop-color="#e5faff"/>
      <stop offset="1" stop-color="#aee4ff"/>
    </radialGradient>
    <radialGradient id="radial-gradient-38" cx="186.54" cy="47.24" fx="186.54" fy="47.24" r="10.96" gradientUnits="userSpaceOnUse">
      <stop offset="0" stop-color="#e5faff"/>
      <stop offset="1" stop-color="#a8dcff"/>
    </radialGradient>
    <radialGradient id="radial-gradient-39" cx="198.3" cy="43.86" fx="198.3" fy="43.86" r="14.71" xlink:href="#radial-gradient-38"/>
    <radialGradient id="radial-gradient-40" cx="201.41" cy="49.36" fx="201.41" fy="49.36" r="9.38" xlink:href="#radial-gradient"/>
    <radialGradient id="radial-gradient-41" cx="204.94" cy="54.63" fx="204.94" fy="54.63" r="4.73" xlink:href="#radial-gradient-2"/>
    <radialGradient id="radial-gradient-42" cx="208.18" cy="50.74" fx="208.18" fy="50.74" r="8.69" xlink:href="#radial-gradient-2"/>
    <radialGradient id="radial-gradient-43" cx="211.2" cy="53.12" fx="211.2" fy="53.12" r="7.85" xlink:href="#radial-gradient-38"/>
    <radialGradient id="radial-gradient-44" cx="210.7" cy="59.06" fx="210.7" fy="59.06" r="8" xlink:href="#radial-gradient-33"/>
    <radialGradient id="radial-gradient-45" cx="211.71" cy="62.74" fx="211.71" fy="62.74" r="4.41" xlink:href="#radial-gradient-33"/>
    <radialGradient id="radial-gradient-46" cx="207.17" cy="62.89" fx="207.17" fy="62.89" r="7.54" xlink:href="#radial-gradient-33"/>
    <radialGradient id="radial-gradient-47" cx="203.07" cy="63.42" fx="203.07" fy="63.42" r="8.45" xlink:href="#radial-gradient-33"/>
    <radialGradient id="radial-gradient-48" cx="204.19" cy="76.1" fx="204.19" fy="76.1" r="10.7" xlink:href="#radial-gradient-33"/>
    <radialGradient id="radial-gradient-49" cx="194.18" cy="73.47" fx="194.18" fy="73.47" r="7.14" xlink:href="#radial-gradient-33"/>
    <radialGradient id="radial-gradient-50" cx="193.86" cy="76.47" fx="193.86" fy="76.47" r="15.84" xlink:href="#radial-gradient-33"/>
    <radialGradient id="radial-gradient-51" cx="184.1" cy="65.25" fx="184.1" fy="65.25" r="7.2" xlink:href="#radial-gradient-33"/>
    <radialGradient id="radial-gradient-52" cx="181.28" cy="65.13" fx="181.28" fy="65.13" r="5.28" xlink:href="#radial-gradient-33"/>
    <radialGradient id="radial-gradient-53" cx="178.3" cy="76.18" fx="178.3" fy="76.18" r="9.11" xlink:href="#radial-gradient-33"/>
    <radialGradient id="radial-gradient-54" cx="171.97" cy="74.36" fx="171.97" fy="74.36" r="8.75" xlink:href="#radial-gradient-33"/>
    <radialGradient id="radial-gradient-55" cx="173.22" cy="64.1" fx="173.22" fy="64.1" r="6.2" xlink:href="#radial-gradient-33"/>
    <radialGradient id="radial-gradient-56" cx="164.91" cy="66.52" fx="164.91" fy="66.52" r="9.45" xlink:href="#radial-gradient-33"/>
    <radialGradient id="radial-gradient-57" cx="166.43" cy="63.65" fx="166.43" fy="63.65" r="6.5" xlink:href="#radial-gradient-33"/>
    <radialGradient id="radial-gradient-58" cx="175.04" cy="44.74" fx="175.04" fy="44.74" r="47.17" gradientTransform="matrix(1,0,0,1,0,0)" xlink:href="#radial-gradient-15"/>
    <radialGradient id="radial-gradient-59" cx="174.05" cy="69.14" fx="174.05" fy="69.14" r="19.75" gradientTransform="matrix(1,0,0,1,0,0)" xlink:href="#radial-gradient-6"/>
    <radialGradient id="radial-gradient-60" cx="179.58" cy="78.19" fx="179.58" fy="78.19" r="30.96" gradientUnits="userSpaceOnUse">
      <stop offset="0" stop-color="#8fbcff"/>
      <stop offset="1" stop-color="#b0e4ff"/>
    </radialGradient>
    <radialGradient id="radial-gradient-61" cx="187.01" cy="74.34" fx="187.01" fy="74.34" r="30.2" gradientTransform="matrix(1,0,0,1,0,0)" xlink:href="#radial-gradient-6"/>
    <radialGradient id="radial-gradient-62" cx="195.52" cy="55.34" fx="195.52" fy="55.34" r="18.51" gradientUnits="userSpaceOnUse">
      <stop offset="0" stop-color="#c2eaff"/>
      <stop offset="1" stop-color="#6caff0"/>
    </radialGradient>
    <radialGradient id="radial-gradient-63" cx="197.03" cy="65.2" fx="197.03" fy="65.2" r="15.34" xlink:href="#radial-gradient-62"/>
    <radialGradient id="radial-gradient-64" cx="183.11" cy="57.69" fx="183.11" fy="57.69" r="29.27" gradientTransform="matrix(1,0,0,1,0,0)" xlink:href="#radial-gradient-15"/>
    <radialGradient id="radial-gradient-65" cx="182.38" cy="57.36" fx="182.38" fy="57.36" r="25.98" gradientTransform="matrix(1,0,0,1,0,0)" xlink:href="#radial-gradient-15"/>
    <radialGradient id="radial-gradient-66" cx="203.78" cy="64.93" fx="203.78" fy="64.93" r="2.07" xlink:href="#radial-gradient-62"/>
    <radialGradient id="radial-gradient-67" cx="178.59" cy="71.74" fx="178.59" fy="71.74" r="3.41" gradientTransform="translate(4.05 -26.13) rotate(5.8)" xlink:href="#radial-gradient-62"/>
    <radialGradient id="radial-gradient-68" cx="204.76" cy="-13.26" fx="204.76" fy="-13.26" r="3.15" gradientTransform="translate(0 50.47) scale(1 -1)" gradientUnits="userSpaceOnUse">
      <stop offset="0" stop-color="#b4e5ff"/>
      <stop offset=".13" stop-color="#b0e0ff"/>
      <stop offset="1" stop-color="#94c1ff"/>
    </radialGradient>
    <linearGradient id="linear-gradient-11" x1="189.28" y1="68.54" x2="189.28" y2="58.39" gradientUnits="userSpaceOnUse">
      <stop offset="0" stop-color="#79adfc"/>
      <stop offset="1" stop-color="#699ced"/>
    </linearGradient>
    <linearGradient id="linear-gradient-12" x1="189.2" y1="68" x2="189.2" y2="51.43" gradientUnits="userSpaceOnUse">
      <stop offset="0" stop-color="#a8caff"/>
      <stop offset="1" stop-color="#e8faff"/>
    </linearGradient>
    <filter id="drop-shadow-2" filterUnits="userSpaceOnUse">
      <feOffset dx="0" dy=".5"/>
      <feGaussianBlur result="blur-2" stdDeviation="0"/>
      <feFlood flood-color="#000" flood-opacity=".75"/>
      <feComposite in2="blur-2" operator="in"/>
      <feComposite in="SourceGraphic"/>
    </filter>
  </defs>
  <g class="cls-108">
    <g id="Layer_1" data-name="Layer 1">
      <g>
        <path class="cls-6" d="M224.82,80.98c-5.87-.04-11.67-.13-17.88-.26-3.59.05-7.2.13-10.82.31-9.68.03-18.42-.02-28.03-.25-6.09.2-12.1.25-18.12.25-1.42-.28-2.69-1.07-3.81-1.52-.16-1.66-.33-3.31-.53-4.95-.19-1.64-.49-3.27-.89-4.9.62-2.66.82-5.3.46-7.93.81-1.5,1.38-3.03,1.7-4.6-.69-2.82-1.36-5.63-1.85-8.42.77-1.55,1.39-3.11,1.93-4.67.81-.4,1.93-1.12,2.96-1.39,5.75-.02,11.82.12,17.76.3,6.48,0,11.98-.12,18.38-.32,3.23.02,5.97.1,8.75.25,8.09.05,16.15-.05,24.18-.28,1.98.05,3.9.08,5.8.12h0c.97-.03,1.95-.07,2.92-.13.78.02,3.57.92,3.77,1.2.2,1.22-.08,3.56-.55,5.31-.04,2.39.46,4.81,1.09,7.24.05,1.76-.02,3.5-.18,5.22-.15,1.72-.42,3.42-.75,5.11.01,1.12.56,2.25,1.08,3.38-.56,3.01-.8,6.09-.68,9.27-.41.31-2.88,1.51-3.77,1.55-.81.05-1.82.09-2.93.11h0Z"/>
        <path class="cls-26" d="M150.92,79.57c-.62-.14-1.22-.31-1.74-.49-1.01.15-2.01.3-3.02.45,1.11.45,2.4,1.21,3.82,1.49.3-.35.63-1.11.95-1.45h0Z"/>
        <path class="cls-12" d="M149.17,71.1c.08-1.29.36-2.71.44-4.1.09-1.39-.07-2.76-.81-3.97-1.35.24-2.71.49-4.07.73.41,1.27.7,2.55.89,3.83.19,1.28.36,2.57.53,3.86,1.01-.11,2.01-.23,3.02-.35h0Z"/>
        <path class="cls-54" d="M148.81,68.74c.49-2.57.64-4.31.04-6.59-1.22-.14-2.42-.27-3.64-.41.35,2.63.16,5.27-.47,7.94,1.37-.31,2.73-.62,4.07-.94h0Z"/>
        <path class="cls-17" d="M148.85,62.15c.14-1.66.48-2.89,1.17-4.36-1.03-.21-2.07-.43-3.1-.65-.33,1.57-.9,3.1-1.71,4.6,1.22.14,2.42.27,3.64.41h0Z"/>
        <path class="cls-83" d="M146.91,57.14c1.03.22,2.07.43,3.1.65-1.02-2.76-1.94-6.42-2.4-9.16-.85.03-1.71.06-2.56.09.5,2.79,1.16,5.6,1.86,8.43h0Z"/>
        <path class="cls-20" d="M147.62,48.63c.55-1.47,1.44-2.77,2.67-3.98-1.1-.2-2.21-.4-3.3-.6-.54,1.56-1.16,3.11-1.93,4.67.85-.03,1.71-.06,2.56-.09h0Z"/>
        <path class="cls-91" d="M146.98,49.33c1.09.39,2.2.77,3.3,1.16.41-.35.89-.69,1.38-.99-.59-.75-1.15-2.1-1.72-2.86-1.03.52-2.15,1.92-2.96,2.69h0Z"/>
        <path class="cls-19" d="M149.95,46.64c.57.76,1.14,2.11,1.72,2.86,5.43,0,9.54.36,15.02.68.33-.79.68-2.17,1.02-2.96-5.95-.34-12.01-.61-17.76-.58h0Z"/>
        <path class="cls-45" d="M167.71,47.21c-.34.79-.69,2.17-1.02,2.96,6.07-.45,13.77-.89,19.91-1.28-.16-.57-.34-1.73-.5-2.31-6.41.4-11.91.63-18.38.63h0Z"/>
        <path class="cls-2" d="M186.1,46.58c.16.58.34,1.74.5,2.31,2.76.05,3.75.1,6.57.39.55-.53,1.11-1.67,1.67-2.21-2.78-.29-5.52-.46-8.75-.49h0Z"/>
        <path class="cls-101" d="M194.84,47.07c-.56.54-1.12,1.68-1.67,2.21,8.35.31,20.81.46,28.96-.23-1.04-.63-2.08-1.87-3.1-2.51-8.03.43-16.09.63-24.18.53h0Z"/>
        <path class="cls-44" d="M227.75,46.52c-.3.71-.59,2.01-.87,2.72.26.09.55.21.8.32,1.28-.24,2.55-.48,3.84-.72-.2-.55-2.99-2.27-3.77-2.32h0Z"/>
        <path class="cls-15" d="M231.52,43.79c-1.29.12-2.56.25-3.84.37.19,1.77-.07,3.39-.74,5.23,1.36-.16,2.7-.32,4.05-.49.46-1.73.73-3.93.53-5.12h0Z"/>
        <path class="cls-21" d="M230.99,48.91c-1.35.16-2.69.32-4.05.49.66,2.41,1.76,5.35,2.4,7.8.9-.3,1.8-.61,2.72-.91-.63-2.43-1.12-4.85-1.09-7.25.01-.04.02-.09.02-.13h0Z"/>
        <path class="cls-102" d="M232.06,56.29c-.91.31-1.82.61-2.72.91.11,3.42-.67,5.65-1.78,8.87,1.18.18,2.38.37,3.57.55.33-1.69.6-3.4.75-5.12.15-1.72.22-3.46.18-5.22h0Z"/>
        <path class="cls-47" d="M231.13,66.63c-1.19-.18-2.39-.37-3.57-.55,0,1.18.62,3.6,1.14,4.76,1.16-.28,2.34-.55,3.51-.83-.52-1.13-1.07-2.25-1.08-3.38h0Z"/>
        <path class="cls-1" d="M232.21,70.01c-1.17.28-2.35.55-3.51.83-.56,2.92-.01,5.15.04,8.07.94.12,1.86.29,2.8.41-.12-3.18.12-6.31.68-9.31h0Z"/>
        <path class="cls-84" d="M231.53,79.32c-.94-.12-1.86-.28-2.8-.41-.35.09-.77.18-1.03.21.02.35.04,1.39.07,1.74.89-.03,3.35-1.23,3.76-1.55h0Z"/>
        <path class="cls-63" d="M206.95,80.72c.06-.42.14-1.26.21-1.69-2.75.14-8.1.47-12.15.75.36.28.74.97,1.11,1.25,3.63-.18,7.24-.27,10.83-.31h0Z"/>
        <path class="cls-60" d="M196.12,81.03c-.39-.28-.75-.99-1.11-1.27-8.79-.2-17.79-.4-26.57-.69-.13.43-.25,1.29-.35,1.71,9.61.24,18.35.29,28.03.25h0Z"/>
        <path class="cls-81" d="M168.09,80.78c.11-.43.22-1.26.34-1.69-5.04.2-11.78.43-17.51.48-.32.35-.64,1.11-.95,1.45,6.02,0,12.04-.05,18.12-.25h0Z"/>
        <path class="cls-98" d="M148.81,68.74c.74,1.55.9,3.31.81,5.09-.09,1.78-.36,3.59-.44,5.25.53.18,1.12.35,1.74.49,5.39-.05,11.69-.25,16.59-.45.2,0,.36-.04.49-.09.13-.05.2-.11.19-.18-.01-.07-.08-.15-.14-.25-.88-1.55-1.87-3.09-3.23-4.6-.01-1.59-.55-3.15-1.67-4.67-1.86-1.14-3.21-2.32-4.16-3.53-2.27-.84-4.37-1.81-6.38-2.86-.84-.2-1.71-.46-2.49-.47-.3,0-.57.04-.77.12-.2.08-.3.18-.27.29.37,1.94.2,3.57-.26,5.86h0Z"/>
        <path class="cls-67" d="M160.4,66.28c.66.99,1.67,1.89,2.87,2.73.3.06.47.08.62.06.33-.03,4.13-1.83,4.63-2.06,1.42-.3,2.52-.72,3.68-1.27.54-.25.29-.23-.43-.21-.67.02-3.75.13-6.48.18-1.51.03-3,.05-3.92.06-.71,0-1.21.05-.96.51h0Z"/>
        <path class="cls-57" d="M152.97,62.45c.27-.48-.85-3.07-1.99-4.12-.4-.37-1-.54-1.11-.06-.3,1.04-.69,1.99-.92,3.07h0s0,.08-.01.12c-.01.17.09.28.29.39.57.3,1.68.43,2.78.64.35.07.84.2.97-.04h0Z"/>
        <path class="cls-8" d="M150.4,57.69c1.68,1.12,2.34,2.4,2.82,3.65.17.45.14.87.34,1.32.15.35.46.6.98.88,1.38.73,2.93,1.35,4.6,1.91.68.23,1.02.2,1.94.2,3.31,0,7.08-.15,10.34-.24.92-.03,1.33-.06,2.24-.15,1.82.11,3.53.16,5.36.21,1.57.04,3.2.04,4.37,0,.85-.03,1.45-.08,1.62-.13.43-.13.82-.21,1.1-.52,1.01-1.14,1.77-2.7,2.15-4.38.38-1.67.43-3.47.28-5.08-.04-.45-.3-.63-.85-1.06-2.1-1.57-7.38-4.41-9.68-5.45-6.19-1.72-9.85-3.48-11.49-4.16-.31-.13-.83-.18-1.59-.27-1.85-.06-3.58-.12-5.28-.17-.07,0-.13,0-.19,0-1.11-.03-1.21-.02-1.59.34-.48.46-1.03.91-1.62,1.34-2.35.91-4.92,1.73-7.52,2.52-.96.29-1.1.34-.98.85.48,2.51,1.26,5.6,2.15,8.08.15.1.34.2.49.31h0Z"/>
        <path class="cls-35" d="M148.75,57.47c2.53-1.41,4.99-2.89,7.27-4.58.28-.38,1.61-2.65,1.33-3.02-.11-.15-.32-.26-.87-.28-1.53-.06-3.11-.09-4.82-.09-.49.3-.97.64-1.38.99-1.08,2.06-1.87,4.24-2.44,6.66-.19.8.03.81.9.33h0Z"/>
        <path class="cls-56" d="M174.61,65.49c-.78-.02-1.49.09-2.03.3-1.28.51-2.53.96-3.76,1.34-1.21.49-3.35,1.4-4.43,2.18-.33.24-.44.47-.32.72.65,1.29,1.07,2.59,1.19,3.91,1.45,1.47,2.4,3.04,3.19,4.65.06.13.14.24.28.34.19.13.52.21.95.22,7.8.25,15.75.44,23.55.61.04,0,.08,0,.15,0,.41,0,1.33.02,1.44-.02.33-.13,0-.4-.19-.7-1.5-2.43-2.52-4.87-2.78-7.3-2.29-1.69-4.07-3.48-5.57-5.33-.44-.53-.71-.6-2.28-.67-1.18-.05-3.09-.09-5.02-.13-1.56-.04-3.14-.09-4.38-.12h0Z"/>
        <path class="cls-104" d="M192.63,72.07c.35,2.3,1.28,4.61,2.45,6.94.12.23.15.41.27.53.2.2.56.18,1.1.15,3.3-.22,7.08-.46,9.64-.6.02,0,.06,0,.09,0,.43-.02.7-.04,1.05-.18.16-.06.33-.16.64-.32,1.56-.8,3.11-1.6,4.65-2.39.42-.21.53-.39.15-.52-3.82-1.27-18.51-3.77-19.46-3.73-.21.01-.4.05-.59.13h0Z"/>
        <path class="cls-76" d="M187.48,53.94c.86.62,1.14.5,1.64.04,2.17-2.03,3.96-4.13,5.2-6.34.04-.66-.45-3.13-1.09-3.48-.11-.06-.2-.11-.33-.15-2.61-.13-3.62-.16-6.3-.18-5.57.18-12.44.38-18.19.59-.48.13-.63.24-.66.35-.09.36,6.6,3.03,10.57,4,3.31,1.55,6.6,3.33,9.15,5.17h0Z"/>
        <path class="cls-77" d="M195.45,55.86c.68.04,6.03-.98,7.04-1.15,4.2-1.84,8.64-3.38,13.58-4.43.56-.12,3.74-.63,3.89-.97.02-.05-.28-.07-.42-.07-7.49.44-17.46.34-24.86.09h-.02c-.18,0-.71-.02-.78.01-.13.05-.09.42-.08.52.06.53.37,1.56.52,2.37.17.96.26,2.03.35,2.91.04.41-.02.66.8.71h0Z"/>
        <path class="cls-3" d="M160.4,66.31c.66.99,1.67,1.89,2.87,2.73.3.06.47.08.62.06.33-.03,4.13-1.84,4.63-2.07,1.42-.3,2.52-.72,3.68-1.27.54-.25.29-.23-.43-.21-.67.02-3.75.13-6.48.19-1.51.03-3,.05-3.92.06-.71,0-1.21.05-.96.51h0ZM224.82,79.3c.54,0,1.09.01,1.63.02.62,0,.94-.01,1.1.22.13.19.11.45.18.64.07-.26.13-.58.23-.84.03-.08.68-.25.97-.23.82.03,1.6.17,2.4.24-.88-.17-1.84-.34-2.12-.5-.12-.07-.14-.15-.15-.25-.19-2.3-.35-4.6-.49-6.9l.15-.52c.07-.41,1.25-.55,1.96-.77-.97.12-1.81.38-2.02-.06-.67-1.41-.97-2.49-.95-3.84,0-.36.67-.19,1.83-.08-.75-.18-1.51-.35-1.68-.45-.11-.06,0-.18.06-.3,1.33-2.41,1.83-5.5,1.83-8.17,0-.49.88-.61,1.54-.94-.85.17-1.61.37-1.78-.01-1.16-2.35-1.69-4.95-2.53-7.02-.11,0,2.1,6.68,2.26,7.29.05,1.58-.09,2.88-.46,4.45-.34,1.37-.88,3.53-1.37,4.89-.01,1.6.49,2.98,1.14,4.56-2.29.8-11.39,4.07-12.89,4.49-.53.15-2.02.48-2.66.32-2.75-.69-5.58-1.18-9.11-1.92-4.54-.95-7.25-1.23-11.92-2.42,0,0,.01.02.01.02-2.03-1.72-3.89-3.47-5.41-5.7,1.07-1.76,1.87-3.58,2.22-5.4.36-1.82.35-3.66.13-5.45,2.37-2.09,4.29-4.23,5.57-6.44.23-.39.39-.5,1.5-.63,1.77-.21,5.5-.39,6.99-.52,3.72-1.09,10.48-2.01,15.98-2.65,1.05-.12,1.97-.3,2.7-.36.91-.07,4.59-.13,5.21-.06.26.05.55.11.8.17.14,1.34.04,2.59-.32,3.91.44-1.03.56-1.99.74-3.13.14-.95.27-.75,3.01-1.11-.97.06-1.92.16-2.89.19-.36,0-.91-.13-.85-.34.05-.21.08-.61.19-.8-.39.31-.73.61-1.07.83-.27.17-2.53.07-3.08.05-.47-.02-.86-.09-1.24-.15-.96-.17-1.76-.49-2.75-.86,1.14.58,2.34,1.09.25,1.13-8.04.14-16.15.2-24.33.11-.73,0-1.46-.03-1.51-.09-.02-.03.13-.15.34-.29.15-.1.32-.2.47-.3-1.1.44-1.09.65-2.79.57-.78-.04-1.58-.07-2.38-.11-2.56-.12-2.59.07-3.29-.69.07.44.21.61-1.12.65-5.47.14-10.9.33-16.3.6-.8.04-1.2,0-1.37-.07-.28-.13,0-.43.2-.83-.22.24-.45.41-.69.56-.6.37-3.55.27-6.7.17-2.86-.08-5.78-.13-7.13-.16-.62-.02-.99.01-1.31-.07-.36-.09-1-.65-1.44-.98.3.33.61.77.63,1.06,0,.07-.86.5-1.73.37-.56-.08-1.14-.15-1.73-.22.53.12,1.06.24,1.58.36.96.22.77.25.48.57-.94,1.05-1.65,1.95-2.24,3.06-.26.48-.35.47-1.64.57.89,0,1.22,0,1.45.1.17.07.21.25.25.49.36,2.7,1.15,5.01,2.14,7.75.26.72-.84.42-2.3.17.98.24,1.81.35,2.12.61.1.08.1.19.08.33-.11,1.08-.35,2.18-.91,3.27-.31.6-1.62.44-2.89.39,2.01.31,2.59.25,2.92,1.17.4,1.52.48,3.06.05,4.64-.3,1.09-.5,1.2-2.78,1.85.85-.16,1.44-.21,1.91-.22.12,0,.5.23.6.62.69,2.9,1.09,5.92.43,8.89-.1.46-1.28.6-2.37.79.93-.11,1.77-.18,2.54-.19.64,0,1.51.26,1.56.43.07.25-.25.84-.32,1.07.21-.18.72-1.03,1.15-1.13.26-.06,1.09-.02,1.91-.03,4.79-.05,8.7-.05,13.57-.28.74-.03,1.09-.03,1.25.03.23.09.16.75.16.93.09-.2.26-.87.63-.99.22-.07.6-.09,1.24-.06,7.8.27,15.43.56,23.36.61.67,0,1.05.03,1.32.08.46.08.8.48,1.12.82-.22-.38-.35-.73-.13-.85.11-.06.39-.11.88-.14,2.97-.19,5.97-.38,8.96-.57.76-.05,1.11-.07,1.25-.01.19.07.18.82.19.98.08-.18.23-.87.53-.97.2-.06.48-.08,1.04-.05,5.38.26,10.79-.02,16.23.06h0ZM228.55,71.7c-.34,2.53.13,4.62.18,7.26-.35.09-.77.18-1.03.22-.66.02-1.69.02-2.88.02h0c-5.52-.12-11.04.04-16.53-.09-.14,0-.33,0-.41-.04-.08-.04-.01-.11.04-.16.72-.71,5.16-2.67,5.82-3.01.68-.16,1.36-.33,2.04-.52,3.66-.99,9.92-3.72,12.77-4.41v.73h0ZM193.24,79.8c-7.8-.18-15.75-.37-23.55-.62-.43-.01-.76-.09-.95-.22-.14-.09-.22-.2-.28-.34-.79-1.61-1.73-3.18-3.19-4.66-.13-1.33-.54-2.63-1.19-3.92-.12-.24-.01-.48.32-.72,1.08-.77,3.22-1.69,4.43-2.18,1.23-.37,2.48-.83,3.76-1.34.54-.22,1.24-.32,2.03-.3,1.24.03,2.82.08,4.38.12,1.93.05,3.84.08,5.02.13,1.57.07,1.84.14,2.28.67,1.5,1.85,3.28,3.64,5.57,5.33.26,2.44,1.28,4.88,2.78,7.31.19.3.52.57.19.7-.13.05-1.35.02-1.59.02h0ZM206.09,79.14c-2.53.14-6.29.37-9.58.59-.56.04-.95.06-1.16-.14-.12-.12-.15-.29-.27-.53-1.17-2.33-2.1-4.65-2.45-6.95.19-.08.38-.12.59-.13.95-.05,15.64,2.46,19.46,3.73.37.12.27.3-.15.52-1.53.8-3.09,1.6-4.65,2.4-.32.16-.48.26-.64.32-.37.15-.66.16-1.15.19h0ZM194.68,44.05c7.39.12,17.34.18,24.85-.05.13,0,.45,0,.43.03-.14.17-3.33.44-3.89.5-4.94.54-9.38,1.34-13.58,2.3-1.01.09-6.36.62-7.04.6-.82-.02-.76-.16-.8-.37-.09-.45-.18-1.01-.35-1.51-.14-.42-.46-.95-.52-1.23-.01-.06-.04-.24.08-.27.07-.02.66-.01.81,0h0ZM169.34,44.39c5.55-.2,11.98-.39,17.26-.56,2.68.03,3.69.05,6.3.19.13.05.21.09.33.15.64.34,1.12,2.83,1.09,3.48-1.24,2.21-3.03,4.31-5.2,6.34-.5.46-.78.59-1.64-.04-2.55-1.85-5.83-3.63-9.15-5.18-3.97-.97-10.65-3.65-10.57-4.01.07-.33.82-.35,1.58-.38h0ZM151.12,58.48c.02.08.04.17.06.25-.47,1.01-.72,2.1-.74,3.2,0,.08-.02.18-.12.19-.35.06-.9-.14-1.1-.25-.26-.13-.33-.26-.28-.51.23-1.08.62-2.04.92-3.08.12-.47.7-.3,1.11.06.04.04.08.08.14.12h0ZM149.56,48.21c.25,1.56.29,3.06.5,4.54.09.6.33,1.17.42,1.76.19,1.2.21,2.41.54,3.65-.19-.15-.4-.3-.62-.45-.15-.1-.34-.2-.49-.31-.89-2.48-1.66-5.57-2.15-8.09-.1-.51.02-.56.98-.85.28-.08.55-.17.82-.25h0ZM148.75,48.26c-.87.25-1.09.24-.9-.17.56-1.25,1.36-2.38,2.44-3.45.41-.18.89-.36,1.38-.51,1.71,0,3.29.02,4.82.05.55.01.75.06.87.14.27.19-1.05,1.37-1.33,1.56-2.32.9-4.77,1.64-7.27,2.38h0ZM151.35,58.44c-.37-1.54-.36-3.76-.71-5.2-.42-1.48-.43-3.65-.71-5.14,2.19-.68,4.34-1.39,6.34-2.16.59-.43,1.14-.88,1.62-1.34.4-.38.49-.37,1.78-.34,1.7.05,3.43.11,5.28.17.76.09,1.29.14,1.59.27,1.64.68,5.29,2.44,11.49,4.17,2.31,1.04,7.59,3.89,9.68,5.46.55.42.81.61.85,1.06.15,1.61.1,3.41-.28,5.08-.38,1.68-1.14,3.24-2.15,4.38-.28.32-.67.39-1.1.52-.17.05-.76.1-1.62.13-1.17.04-2.8.05-4.37,0-1.84-.05-3.55-.1-5.36-.21-.9.09-1.31.12-2.24.15-3.26.09-7.03.24-10.34.24-.93,0-1.27.03-1.94-.2-1.68-.56-3.22-1.19-4.6-1.91-.53-.28-.83-.53-.98-.88-.2-.45-.17-.87-.34-1.33-.37-.99-.85-1.99-1.87-2.92h0ZM150.77,62.3c-.01-.05-.02-.11-.05-.16.01-1.28.25-2.01.69-3.32.98,1.2,1.78,3.24,1.56,3.66-.13.24-.62.1-.97.04-.42-.08-.83-.15-1.23-.22h0ZM149.17,79.13c.08-1.66.36-3.47.44-5.26.09-1.78-.07-3.54-.81-5.1.46-2.29.65-3.92.26-5.86-.02-.11.06-.21.27-.29.2-.08.47-.12.77-.12.04,0,1.82.22,2.49.47,2.01,1.05,4.11,2.02,6.38,2.87.95,1.21,2.3,2.39,4.16,3.54,1.12,1.52,1.66,3.08,1.67,4.67,1.36,1.51,2.35,3.06,3.23,4.61.06.1.13.18.14.25.01.07-.05.13-.19.18-.13.05-.29.09-.49.09-4.91.19-11.21.4-16.59.45-.62-.14-1.22-.31-1.74-.49h0Z"/>
        <path class="cls-38" d="M222.16,48.48c.38.13.77.26,1.24.29.55.04,2.81.25,3.08-.09.34-.43.68-1.01,1.07-1.61.07-.2.13-.39.2-.55-.98.1-1.95.18-2.92.24-1.9-.06-3.82-.14-5.8-.23.13.08.26.17.39.27.99.73,1.79,1.34,2.75,1.67h0Z"/>
        <path class="cls-72" d="M226.88,44c-.62-.08-4.3-.01-5.21.06-.73.05-1.65.23-2.7.36-5.51.64-12.26,1.56-15.98,2.65-1.49.13-5.22.32-6.99.52-1.11.13-1.27.23-1.5.63-1.28,2.21-3.21,4.34-5.57,6.43.22,1.79.23,3.63-.13,5.45-.36,1.82-1.16,3.64-2.22,5.39,1.52,2.23,3.38,3.97,5.41,5.69,0,0-.01-.01-.01-.02,4.67,1.19,7.38,1.47,11.92,2.42,3.53.73,6.36,1.23,9.11,1.92.64.16,2.13-.17,2.66-.32,1.49-.42,10.6-3.68,12.89-4.48-.65-1.58-1.15-2.95-1.14-4.55.49-1.36,1.03-3.52,1.37-4.88.37-1.57.51-2.86.46-4.43-.02-.07-.04-.13-.06-.2-.38-1.25-2.31-7.09-2.21-7.09-.01-.04-.02-.08-.03-.12.62-1.7.89-3.22.77-4.84,0-.13-.02-.26-.03-.39-.25-.06-.54-.12-.8-.17h0Z"/>
        <path class="cls-40" d="M228.55,70.93c-2.85.7-9.11,3.42-12.77,4.41-.67.18-1.35.35-2.04.52-.66.34-5.1,2.29-5.82,3.01-.05.05-.11.12-.04.16.08.04.27.03.41.04,5.48.13,11-.04,16.53.09h0c1.18,0,2.22,0,2.88-.02.26-.04.68-.13,1.03-.21-.05-2.64-.52-4.72-.18-7.25v-.73h0Z"/>
        <path class="cls-28" d="M224.82,79.25c-5.45-.08-10.86.19-16.23-.06-.56-.03-.85,0-1.04.05-.31.1-.45.79-.53.97-.02.2-.04.38-.06.51,0,0,0,0,0,0,6.21.14,12.01.22,17.88.26,1.11-.03,2.12-.07,2.93-.11,0,0,0,0,.01,0-.02-.16-.03-.45-.04-.76-.06-.19-.05-.44-.17-.62-.16-.23-.48-.21-1.1-.22-.55,0-1.09-.01-1.63-.02h0Z"/>
        <g>
          <path class="cls-97" d="M153.16,48.15h70.63c.53,0,.96.23.96.51v28.13c0,.28-.43.51-.96.51h-70.63c-.53,0-.96-.23-.96-.51v-28.13c0-.28.43-.51.96-.51h0Z"/>
          <polygon class="cls-31" points="153.14 48.65 223.8 48.65 223.8 76.79 153.14 76.79 153.14 48.65 153.14 48.65"/>
          <path class="cls-88" d="M153.16,48.43h70.63c.53,0,.96.23.96.51v-.28c0-.28-.43-.51-.96-.51h-70.63c-.53,0-.96.23-.96.51v.28c0-.28.43-.51.96-.51h0Z"/>
          <path class="cls-11" d="M153.16,77.01h70.63c.53,0,.96-.23.96-.51v.28c0,.28-.43.51-.96.51h-70.63c-.53,0-.96-.23-.96-.51v-.28c0,.28.43.51.96.51h0Z"/>
        </g>
        <path class="cls-46" d="M158.37,41.58c-2.9-.21-4.95-.6-7.68-.59-4.1.02-7.88.85-8.71,3.43-.27.83,0,1.7.37,2.52.49,1.11,1.74,2.11,2.19,3.23.22.56.17,1.15.15,1.73-.03.76-.02,2.22,1.58,2.56-.19-.86-.38-1.71-.58-2.57-.6-2.96,3.37-1.94,6.76-2.57,6.3-1.17,6.98-3.98,14.57-4.23,2.69-.09,5.29.16,7.18.46,3.75.59,7.2,1.73,10.95,2.51,5.56,1.16,10.54,1,15.09.05,7.69-1.62,12.7-3.22,17.08-.91,3.9,2.06,6.34.67,9.78.76,2.15.05,3.85.31,3.83,1.5-.02,1.42.21,2.75.46,4.2,3.6-.24,1.06-2.85.76-3.8-.27-.85.52-2.13.91-2.96.31-.67.86-1.32.94-2,.16-1.41-2.16-3.84-7.15-3.28-5.38.6-9.56.69-14.55-.16-3.9-.67-7.42-1.87-11.37-2.46-7.34-1.1-12.61-.72-19.34.8-5.55,1.26-18.18,2.13-23.2,1.77h0Z"/>
        <g>
          <path class="cls-24" d="M158.37,41.58c-2.9-.21-4.95-.6-7.68-.59-4.1.02-7.88.85-8.71,3.43-.27.83,0,1.7.37,2.52.49,1.11,1.74,2.11,2.19,3.23.22.56.17,1.15.15,1.73-.03.76-.02,2.22,1.58,2.56-.19-.86-.38-1.71-.58-2.57-.6-2.96,2.7-2.42,6.1-3.05,6.3-1.17,7.64-3.5,15.23-3.75,2.69-.09,5.38.05,7.32.26,3.89.43,7.54,1.31,11.37,1.87,5.77.85,10.54,1,15.09.05,7.69-1.62,11.89-2.49,16.7-.43,3.68,1.57,5.94.82,9.38.91,2.15.05,4.07.51,4.06,1.71-.02,1.42.21,2.75.46,4.2,3.6-.24,1.06-2.85.76-3.8-.27-.85.52-2.13.91-2.96.31-.67.86-1.32.94-2,.16-1.41-2.16-3.84-7.15-3.28-5.38.6-9.56.69-14.55-.16-3.9-.67-7.42-1.87-11.37-2.46-7.34-1.1-12.61-.72-19.34.8-5.55,1.26-18.18,2.13-23.2,1.77h0Z"/>
          <path class="cls-39" d="M147.73,48.84c-3.3-.07-4.89-1.32-5.67-2.65.08.25.18.51.29.76.49,1.11,1.74,2.11,2.19,3.23.22.56.17,1.15.15,1.73-.03.76-.02,2.22,1.58,2.56-.19-.86-.38-1.71-.58-2.57-.6-2.96,2.7-2.42,6.1-3.05,6.3-1.17,7.64-3.5,15.23-3.75,2.69-.09,5.38.05,7.32.26,3.89.43,7.54,1.31,11.37,1.87,5.77.85,10.54,1,15.09.05,7.69-1.62,11.89-2.49,16.7-.43,3.68,1.57,5.94.82,9.38.91,2.15.05,4.07.51,4.06,1.71-.02,1.42.21,2.75.46,4.2,3.6-.24,1.06-2.85.76-3.8-.27-.85.52-2.13.91-2.96.31-.67.86-1.32.94-2,.06-.58-.29-1.33-1.07-1.97,1.09,1.32.68,2.71-1.08,4.06-.61.47-1.36.53-3.15.49-1.04-.02-2.29-.05-2.81-.03-1.89.08-3.92.4-5.65-.29-2.27-.91-3.07-2.21-6.4-2.36-2.77-.12-5.79.67-8.31,1.16-5.9,1.17-10.76,2.13-17.24,1.29-6.03-.78-13.31-2.65-18.93-2.97-6.74-.39-7.74.67-12.24,2.65-2.91,1.28-5.44,1.99-9.37,1.91h0Z"/>
          <path class="cls-53" d="M181.57,39.82c-5.55,1.26-18.18,2.13-23.2,1.77-2.9-.21-4.95-.6-7.68-.59-2.12,0-4.16.24-5.75.81,4.51-1.11,6.33-.47,12.48.17,4.86.5,7.18.44,11.93.08,5.95-.45,9.11-1.2,14.62-2.29,6.96-1.38,10.48-1.51,17.65-.42,4.18.64,7.6,1.94,11.43,2.68,5.96,1.16,8.77.38,14.43-.23,1.53-.17,2.42-.11,3.34.09-1.06-.3-2.38-.43-3.97-.25-5.38.6-9.56.69-14.55-.16-3.9-.67-7.42-1.87-11.37-2.46-7.34-1.1-12.61-.72-19.34.8h0Z"/>
          <path class="cls-89" d="M185.1,46.6c2.46.55,6.24.89,8.92.85,2.98-.04,6.25-.52,9.49-1.28.8-.19,1.7-.35,2.43-.6,1.19-.41.45-.79-.48-.68-1.73.2-3.4.52-5.13.72-4.29.49-7.61.59-11.91.61-1.15,0-2.41-.06-3.19-.09-1.32-.04-1.1.25-.12.47h0Z"/>
          <path class="cls-65" d="M188.52,39.32c-3.77.57-11.85,2.21-15.12,3.26-1.08.35-1.58.97-.25,1.36,2.17.62,4.76.99,7.43,1.17,5.6.38,18.23-.39,23.55-1.5,7.55-1.57,6.82-2.19-.62-3.65-4.91-.96-9.87-1.42-14.99-.65h0Z"/>
          <path class="cls-27" d="M218.88,43.53c-.68.21-.97.78-.44,1.08,1.24.7,3.81.95,6.31.95,2.33,0,5.39-.11,7.06-1.06,1.86-1.07-.72-2.73-3.44-2.5-1.67.14-8.06,1.1-9.49,1.54h0Z"/>
          <path class="cls-42" d="M146.52,41.89c-1.48.23-2.59.91-3.33,1.68-.56.59-1,1.46-.84,2.21.27,1.23,2.73,1.8,4.66,1.34,2.39-.57,3.42-1.32,6.96-2.08,2.15-.46,7.73-.61,7.86-1.15.08-.3-.67-.8-2.34-1.18-.5-.11-1.01-.21-1.53-.31-3.31-.62-8.04-1.05-11.46-.52h0Z"/>
        </g>
        <g>
          <path class="cls-32" d="M188.48,37.8c-12.56,0-25.12.27-27.48.8.34,1.57,3.09,18.31,3.09,18.31,3.77-2.57,10.9-5.16,24.35-5.16.01,0,.02,0,.04,0s.02,0,.04,0c13.45,0,20.58,2.59,24.35,5.16,0,0,2.76-16.74,3.09-18.31-2.36-.53-14.92-.8-27.48-.8Z"/>
          <g>
            <path class="cls-49" d="M156.68,57.38c2.04,1.52,7.26.39,8.44-1.36.22-.33.37-.71.3-1.21.04-.15-2.49-7.2-2.7-8.96-.15,2.05-6.03,2.47-7.5,2.06-.49,2.1-.37,8.22,1.46,9.47h0Z"/>
            <path class="cls-29" d="M156.88,44.64c.57,2.33,2.45,7.7,3.52,9.71-1-1.31-3.17-.85-3.99.4-.45.69-.55,1.94.27,2.62-.28-.16-1.05-.77-1.41-2.22-.5-2.03-1.84-5.74-2.86-7.85-1.03-2.12,2.37-4.07,4.47-2.66h0Z"/>
            <path class="cls-100" d="M154.48,44.25c-.53.12-1.03.36-1.42.68.6.77,3.55,8.45,3.47,9.64.34-.42.83-.73,1.37-.89-.82-1.39-3.22-8.53-3.42-9.44h0Z"/>
            <path class="cls-66" d="M160.87,52.26c-.41-1.82,1.21-2.86,3.08-2.93.58,2.65,1.03,3.96,1.46,5.49-.55-1.88-4.11-.61-4.54-2.55h0Z"/>
            <path class="cls-68" d="M157.51,40.03c-.39.43-.41,1.11-.04,1.8,1.69,3.17,3.02,8.25,3.41,10.44-.15-.81.5-1.48,1.79-1.99,2.89-1.15,8.25-1.44,12.94-1.44h12.87v-11.69h-13.14c-5.07,0-15.9.79-17.83,2.88h0Z"/>
            <path class="cls-43" d="M157.17,45.7c-.05-.19-.1-.36-.15-.53-1.27-.83-3.02-.43-3.94.5-.5.5-.76,1.17-.57,1.85.07.14.13.29.2.44-.13-.64.12-1.26.58-1.73.9-.93,2.63-1.34,3.88-.54ZM159.76,52.98c-.67-.57-1.72-.58-2.61-.22-1.42.58-2.23,2.04-1.51,3.42-.23-1.21.66-2.36,1.74-2.82.92-.39,1.99-.41,2.65.24-.09-.2-.18-.41-.28-.63Z"/>
            <path class="cls-74" d="M220.27,57.38c-2.04,1.52-7.26.39-8.44-1.36-.22-.33-.37-.71-.3-1.21-.04-.15,2.49-7.2,2.7-8.96.15,2.05,6.03,2.47,7.5,2.06.49,2.1.37,8.22-1.46,9.47h0Z"/>
            <path class="cls-61" d="M220.06,44.64c-.57,2.33-2.45,7.7-3.52,9.71,1-1.31,3.17-.85,3.99.4.45.69.55,1.94-.27,2.62.28-.16,1.05-.77,1.41-2.22.5-2.03,1.84-5.74,2.86-7.85,1.03-2.12-2.37-4.07-4.47-2.66h0Z"/>
            <path class="cls-33" d="M222.46,44.25c.53.12,1.03.36,1.42.68-.6.77-3.55,8.45-3.47,9.64-.34-.42-.83-.73-1.37-.89.82-1.39,3.22-8.53,3.42-9.44h0Z"/>
            <path class="cls-82" d="M216.07,52.26c.41-1.82-1.21-2.86-3.08-2.93-.58,2.65-1.03,3.96-1.46,5.49.55-1.88,4.11-.61,4.54-2.55h0Z"/>
            <path class="cls-85" d="M223.86,45.67c-.92-.93-2.67-1.33-3.94-.5-.05.17-.1.35-.15.53,1.25-.8,2.98-.4,3.88.54.46.47.71,1.09.58,1.73.07-.15.14-.3.2-.44.19-.69-.07-1.35-.57-1.85ZM219.79,52.76c-.89-.36-1.93-.34-2.61.22-.09.22-.19.43-.28.63.67-.65,1.73-.63,2.65-.24,1.08.45,1.97,1.61,1.74,2.82.72-1.38-.08-2.84-1.51-3.42Z"/>
            <path class="cls-59" d="M162.12,49.19c-.9.38-1.46.86-1.6,1.41.06.25.11.48.16.7.09-.62.68-1.15,1.71-1.57,2.84-1.2,8.49-1.52,13.2-1.52h12.89v-.62h-12.9c-4.73,0-10.67.34-13.45,1.59h0ZM158.05,41.1c2.03-1.99,12.28-2.73,17.31-2.73h13.11v-.62h-13.13c-5.05,0-15.59.77-17.57,2.81-.31.3-.43.73-.34,1.2,0,.02.02.04.03.06.05.09.1.19.15.29,0-.39.14-.74.43-1.01h0Z"/>
            <path class="cls-62" d="M219.44,40.03c.39.43.41,1.11.04,1.8-1.69,3.17-3.02,8.25-3.41,10.44.14-.81-.5-1.48-1.79-1.99-2.89-1.15-8.25-1.44-12.94-1.44h-12.87v-11.69h13.14c5.07,0,15.9.79,17.83,2.88h0Z"/>
            <path class="cls-7" d="M214.83,49.19c.9.38,1.46.86,1.6,1.41-.06.25-.11.48-.16.7-.09-.62-.68-1.15-1.71-1.57-2.84-1.2-8.49-1.52-13.2-1.52h-12.89v-.62h12.9c4.73,0,10.67.34,13.45,1.59h0ZM218.9,41.1c-2.03-1.99-12.28-2.73-17.31-2.73h-13.11v-.62h13.13c5.05,0,15.59.77,17.57,2.81.31.3.43.73.34,1.2,0,.02-.02.04-.03.06-.05.09-.1.19-.15.29,0-.39-.14-.74-.43-1.01h0Z"/>
          </g>
        </g>
        <text class="cls-106" transform="translate(167.76 44.87) scale(.71 1)"><tspan class="cls-107" x="0" y="0">Y</tspan><tspan x="5.13" y="0">OU IMP</tspan><tspan class="cls-111" x="32" y="0">L</tspan><tspan x="36.14" y="0">ODED!</tspan></text>
      </g>
      <g>
        <g>
          <g>
            <polygon class="cls-103" points="174.61 56.87 182.98 56.65 186.87 57.02 198.66 56.75 203.94 56.87 205.28 57.06 208.83 58.86 209.81 60.14 210.86 63.62 210.31 65.58 208.83 68.39 205.41 70.21 203.94 70.35 199.88 70.48 195.7 70.1 183.99 70.37 182.52 70.04 180.5 70.37 174.82 70.47 172.52 70.12 169.73 68.39 168.31 65.99 167.7 63.62 168.17 61.68 169.73 58.83 171.93 57.41 174.61 56.87 174.61 56.87"/>
            <polygon class="cls-103" points="174.76 57.81 172.37 58.29 170.57 59.62 168.86 61.96 168.49 63.49 169.15 65.63 170.42 67.88 172.78 69.35 174.89 69.36 180.38 69.66 182.55 69.33 184.1 69.53 195.73 68.99 199.91 69.36 203.87 69.24 205.08 69.12 208 67.56 209.55 65.19 209.97 63.65 209.18 60.74 207.99 59.35 205.11 58.05 203.92 57.73 198.72 57.61 186.79 58.28 182.9 57.95 174.76 57.81 174.76 57.81"/>
            <polygon class="cls-41" points="168.49 63.49 168.86 61.96 168.17 61.68 167.7 63.62 168.49 63.49 168.49 63.49"/>
            <polygon class="cls-93" points="168.86 61.96 170.57 59.62 169.73 58.83 168.17 61.68 168.86 61.96 168.86 61.96"/>
            <polygon class="cls-69" points="169.73 58.83 170.57 59.62 172.37 58.29 171.93 57.41 169.73 58.83 169.73 58.83"/>
            <polygon class="cls-5" points="172.37 58.29 174.76 57.81 174.61 56.87 171.93 57.41 172.37 58.29 172.37 58.29"/>
            <polygon class="cls-73" points="174.61 56.87 174.76 57.81 182.9 57.95 182.98 56.65 174.61 56.87 174.61 56.87"/>
            <polygon class="cls-87" points="182.98 56.65 182.9 57.95 186.79 58.28 186.87 57.02 182.98 56.65 182.98 56.65"/>
            <polygon class="cls-18" points="186.87 57.02 186.79 58.28 198.72 57.61 198.66 56.75 186.87 57.02 186.87 57.02"/>
            <polygon class="cls-34" points="198.66 56.75 198.72 57.61 203.92 57.73 203.94 56.87 198.66 56.75 198.66 56.75"/>
            <polygon class="cls-58" points="203.94 56.87 203.92 57.73 205.11 58.05 205.28 57.06 203.94 56.87 203.94 56.87"/>
            <polygon class="cls-79" points="205.28 57.06 205.11 58.05 207.99 59.35 208.83 58.86 205.28 57.06 205.28 57.06"/>
            <polygon class="cls-51" points="208.83 58.86 207.99 59.35 209.18 60.74 209.81 60.14 208.83 58.86 208.83 58.86"/>
            <polygon class="cls-75" points="209.81 60.14 209.18 60.74 209.97 63.65 210.86 63.62 209.81 60.14 209.81 60.14"/>
            <polygon class="cls-10" points="210.86 63.62 209.97 63.65 209.55 65.19 210.31 65.58 210.86 63.62 210.86 63.62"/>
            <polygon class="cls-96" points="210.31 65.58 209.55 65.19 208 67.56 208.83 68.39 210.31 65.58 210.31 65.58"/>
            <polygon class="cls-36" points="208 67.56 205.08 69.12 205.41 70.21 208.83 68.39 208 67.56 208 67.56"/>
            <polygon class="cls-25" points="205.08 69.12 203.87 69.24 199.91 69.36 199.88 70.48 203.94 70.35 205.41 70.21 205.08 69.12 205.08 69.12"/>
            <polygon class="cls-23" points="199.88 70.48 199.91 69.36 195.73 68.99 195.7 70.1 199.88 70.48 199.88 70.48"/>
            <polygon class="cls-86" points="195.7 70.1 195.73 68.99 184.1 69.53 183.99 70.37 195.7 70.1 195.7 70.1"/>
            <polygon class="cls-4" points="183.99 70.37 184.1 69.53 182.55 69.33 182.52 70.04 183.99 70.37 183.99 70.37"/>
            <polygon class="cls-92" points="182.52 70.04 182.55 69.33 180.38 69.66 180.5 70.37 182.52 70.04 182.52 70.04"/>
            <polygon class="cls-14" points="180.5 70.37 180.38 69.66 174.89 69.36 174.82 70.47 180.5 70.37 180.5 70.37"/>
            <polygon class="cls-50" points="174.82 70.47 174.89 69.36 172.78 69.35 172.52 70.12 174.82 70.47 174.82 70.47"/>
            <polygon class="cls-90" points="172.52 70.12 172.78 69.35 170.42 67.88 169.73 68.39 172.52 70.12 172.52 70.12"/>
            <polygon class="cls-55" points="170.42 67.88 169.15 65.63 168.31 65.99 169.73 68.39 170.42 67.88 170.42 67.88"/>
            <polygon class="cls-78" points="169.15 65.63 168.49 63.49 167.7 63.62 168.31 65.99 169.15 65.63 169.15 65.63"/>
            <path class="cls-9" d="M169.09,65.44s.07.06.11.08c.21.07,2.64-.94,3.04-1.09,1.81-.67,3.66-1.28,5.58-1.76.85-.56,1.73-1.08,2.77-1.47.4-.18,2.13-2.57,2.02-2.9-.03-.11-.02-.22-.12-.34l-7.75-.13-2.38.47-1.81,1.33-1.71,2.34-.37,1.53.61,1.95h0ZM183.25,57.98c-.18.06-.35.17-.47.37-.38.65-.92,1.67-1.52,2.44-.44.56-.43.41.04.55,1.06.31,4.84,1.79,7.84,3.19.85.4,2.57,1.25,4.01,2.15.19.12.44.21.68.1,1.91-.91,4.09-1.71,6.23-1.98.54-.07.65-.17.84-.78.45-1.47,1.07-2.92,1.78-4.28.32-.11,2.05-1.15,2.22-1.69.03-.09-.88-.3-.99-.33l-5.19-.12-11.94.66-3.54-.3h0ZM201.24,64.8c2.24.47,6.08,2.26,6.54,2.51.1.06.27,0,.46-.09l1.32-2.03.43-1.54-.79-2.92-1.19-1.38-2.48-1.12c-.13-.07-.35-.06-.6.1-.15.1-.28.21-.38.3-.15.13-.3.25-.45.37-.39.31-.81.59-1.27.86-.87,1.42-1.41,2.93-1.83,4.43-.12.43-.18.41.25.51h0ZM207.61,67.77c.05-.09.05-.16.02-.22-.38-.61-5.71-2.6-6.79-2.66-2.31.03-4.83.97-6.95,2.03-.18.09.27.41.37.49.58.42,1.1.85,1.66,1.25.34.24,1.34.36,2.54.56-.91-.08-1.83-.16-2.74-.25-.97.05-1.95.09-2.92.14.55-.05,2.56-.19,2.58-.37,0-.08-.04-.18-.17-.3-1.56-1.54-4.18-2.87-6.17-3.83-2.95-1.43-6.48-2.74-8.16-3.17-.32-.08-.53,0-.81.13-.71.32-1.34.75-1.93,1.23-1.99.46-3.94,1.07-5.87,1.74-.43.15-2.86.95-3.01,1.17-.01.02-.02.03-.03.06l1.18,2.1,2.36,1.47h2.11c-.53.02-1.19,0-1.7.05-.34.04-.46.33-.63.58.02-.09.14-.57.03-.65-.63-.42-1.27-.81-1.91-1.2-.32-.19-.53.02-.82.16.14-.14.47-.36.34-.61-.31-.6-.64-1.2-.98-1.79-.13-.23-.55-.02-.76.03.17-.11.6-.32.57-.47-.11-.54-.32-1.05-.49-1.57-.15-.44-.29-.3-.72-.29.18-.05.36-.09.54-.15.2-.08.29-1.13.31-1.32,0-.05,0-.12-.03-.16-.1-.1-.23-.17-.35-.25.15.03.3.07.45.08.26.02,1.68-2.06,1.51-2.33-.13-.2-.29-.38-.44-.57.24.16.45.37.71.48.26.11,1.73-1.04,1.66-1.38-.04-.18-.13-.35-.2-.53.15.19.27.4.44.58.15.17,2.15-.14,2.2-.52.02-.19.02-.38.03-.57.07.22.09.48.22.67.11.16,6.94.11,7.66.16.08,0,.27-.05.33-.23.08-.26.09-.54.13-.81.01.28.02.55.04.83.02.17.12.25.22.26,1.1.13,2.21.2,3.32.28.07,0,.18-.02.2-.1.05-.29.07-.59.11-.89.02.3.03.6.07.89.01.11.09.14.19.13,3.77-.36,7.54-.6,11.3-.62.11,0,.21-.11.22-.21.02-.17.01-.34.02-.51.04.19.07.38.13.56.02.06.11.13.18.13,1.62-.1,3.17-.03,4.68.13.05,0,.16,0,.19-.1.06-.2.07-.42.1-.62.02.21.03.43.06.64,0,.04,0,.12.11.15.25.07.51.14.76.19.31.06.34-.55.4-.77-.01.16-.16.86.03.92.93.29,1.8.67,2.6,1.13.23.13.64-.17.86-.28-.16.13-.32.24-.47.38-.06.06-.07.19-.01.24.32.28.59.59.8.95.04.07.17.09.24.05.13-.08.25-.18.38-.27-.11.15-.25.3-.34.46-.03.05-.04.11-.03.16.31.84.53,1.66.66,2.47.05.31.45.26.7.3-.39.1-.7.02-.76.46-.04.29-.14.59-.24.89-.01.04,0,.09.02.14.01.04.02.08.05.11.1.09.23.16.34.25-.13-.04-.25-.1-.38-.11-.05,0-.11.01-.14.05-.52.65-.96,1.33-1.35,2.03-.04.08-.03.23.03.3.13.17.27.33.41.5-.19-.14-.37-.3-.57-.43-.07-.04-.25-.06-.32-.03-.82.41-1.63.83-2.43,1.27-.24.13-.07.66-.03.88-.2-.42-.16-.72-.66-.72-.27,0-.53.02-.8.03l1.21-.12,2.53-1.35h0Z"/>
            <path class="cls-30" d="M169.09,65.44s.07.06.11.08c.21.07,2.64-.94,3.04-1.09,1.81-.67,3.66-1.28,5.58-1.76.85-.56,1.73-1.08,2.77-1.47.4-.18,2.13-2.57,2.02-2.9-.03-.11-.02-.22-.12-.34l-7.75-.13-2.38.47-1.81,1.33-1.71,2.34-.37,1.53.61,1.95h0Z"/>
            <path class="cls-70" d="M172.28,64.55c-.43.15-2.86.95-3.01,1.17-.01.02-.02.03-.03.06l1.18,2.1,2.36,1.47h2.11s5.48.31,5.48.31l2.17-.33,1.55.2,8.72-.4c.55-.05,2.56-.19,2.58-.37,0-.08-.04-.18-.17-.3-1.56-1.54-4.18-2.87-6.17-3.83-2.95-1.43-6.48-2.74-8.16-3.17-.32-.08-.53,0-.81.13-.71.32-1.34.75-1.93,1.23-1.99.46-3.94,1.07-5.87,1.74h0Z"/>
            <path class="cls-99" d="M181.3,61.34c1.06.31,4.84,1.79,7.84,3.19.85.4,2.57,1.25,4.01,2.15.19.12.44.21.68.1,1.91-.91,4.09-1.71,6.23-1.98.54-.07.65-.17.84-.78.45-1.47,1.07-2.92,1.78-4.28.32-.11,2.05-1.15,2.22-1.69.01-.03-.11-.08-.27-.14l-.72-.19-5.19-.12-11.94.66-3.54-.3c-.18.06-.35.17-.47.37-.38.65-.92,1.67-1.52,2.44-.44.56-.43.41.04.55h0Z"/>
            <path class="cls-64" d="M200.84,64.9c-2.31.03-4.83.97-6.95,2.03-.18.09.27.41.37.49.58.42,1.1.85,1.66,1.25.34.24,1.34.36,2.54.56l1.44.13,3.96-.13,1.21-.12,2.53-1.35c.05-.09.05-.16.02-.22-.38-.61-5.71-2.6-6.79-2.66h0Z"/>
            <path class="cls-16" d="M200.98,64.3c-.12.43-.18.41.25.51,2.24.47,6.08,2.26,6.54,2.51.1.06.27,0,.46-.09l1.32-2.03.43-1.54-.79-2.92-1.19-1.38-2.48-1.12-.04-.02c-.13-.05-.33-.03-.56.12-.15.1-.28.21-.38.3-.15.13-.3.25-.45.37-.39.31-.81.59-1.27.86-.87,1.42-1.41,2.93-1.83,4.43h0Z"/>
            <path class="cls-94" d="M203.87,68.26c-2.55-.1-6.28-.22-8.91-.16-4.06.28-8.19.31-12.41.22-.89-.02-1.78.02-2.51.22-1.69-.19-3.57-.53-5.31-.47-1.69.06-3.52-1.25-4.28-2.44.67,1.26,2.59,2.76,4.36,2.7,1.94-.22,3.76.27,5.3.59.77-.33,1.59-.35,2.48-.33,4.2.09,8.25-.03,12.29-.32,2.61-.05,6.38.16,8.91.26.85-.23,2.05-.69,2.91-1.36.29-.22.56-.5.8-.81.13-.16.25-.36.36-.57-.08.13-.16.25-.25.36-.24.3-.51.57-.8.78-.87.65-2.08,1.1-2.93,1.32h0Z"/>
            <path class="cls-22" d="M174.72,58.8c1.98.06,5.06.13,7.69.08,5.12.1,11.34-.18,16.51-.48,1.55.31,5.55.52,6.74.81.75.27,1.69,1.2,2.33,2.22.04.07.08.14.12.21-.06-.13-.13-.25-.19-.36-.63-1.03-1.57-1.99-2.32-2.26-1.18-.29-5.17-.41-6.71-.9-5.11.52-11.35.67-16.45.57-2.62.05-5.69-.01-7.67-.08-1.85.08-3.65,1.14-4.44,2.83.83-1.57,2.58-2.55,4.39-2.63h0Z"/>
            <path class="cls-48" d="M182.96,56.98c1.36.15,2.74.46,3.86.8,3.75-.34,7.97-.51,11.87-.6,1.75-.06,3.53-.02,5.24.12.46-.06.89,0,1.29.13,1.11.43,2.29,1.02,3.19,1.67.4.28.87.88,1.08,1.33.45.89.92,2.24,1.15,3.19,0,.29,0,.59-.04.88l.25-.89-1.05-3.48-.98-1.28-3.54-1.8-1.34-.18-5.28-.12-11.79.26-3.89-.37-8.37.23-2.68.53-2.2,1.43-1.56,2.84-.35,1.46c.21-.45.42-.9.7-1.32.47-.89.96-1.77,1.64-2.59.58-.55,1.21-1.06,1.94-1.5.87-.21,1.74-.33,2.61-.28,2.67-.35,5.69-.46,8.26-.46h0Z"/>
          </g>
          <g>
            <path class="cls-52" d="M203.16,63.11c-.12-.01-.27.04-.35.13-.16.2-.28.45-.34.7-.06.27.4.52.62.53.18,0,.38-.06.49-.2.17-.23-.08-1.13-.42-1.16h0Z"/>
            <path class="cls-80" d="M203.08,63.03c-.12-.01-.27.04-.35.13-.16.2-.28.45-.34.7-.06.27.4.52.62.53.18,0,.38-.06.49-.2.17-.23-.08-1.13-.42-1.16h0Z"/>
          </g>
          <g>
            <path class="cls-52" d="M173.65,60.96c-.29.04-.6.13-.83.32-.28.22-.68.97-.53,1.33.08.2.28.39.5.42.33.05.7,0,.99-.18.28-.17.44-.44.66-.67.14-.15.31-.3.43-.47.21-.29-.05-.63-.26-.69-.36-.1-.59-.11-.96-.06h0Z"/>
            <path class="cls-71" d="M173.6,60.89c-.29.04-.6.13-.83.32-.28.22-.68.97-.53,1.33.08.2.28.39.5.42.33.05.7,0,.99-.18.28-.17.44-.44.66-.67.14-.15.31-.3.43-.47.21-.29-.05-.63-.26-.69-.36-.1-.59-.11-.96-.06h0Z"/>
          </g>
          <path class="cls-52" d="M204.7,62.93c-.3-.22-.52-.48-.79-.74-.22-.21-.57-.38-.67-.67-.13-.37.23-.76.79-.8.47-.04,1.07.04,1.3.11.52.17,1.07.42,1.33.91.2.37.08,1.06-.31,1.25-.4.2-1.27.24-1.65-.05h0Z"/>
          <path class="cls-37" d="M204.75,62.82c-.3-.22-.52-.48-.79-.74-.22-.21-.57-.38-.67-.67-.13-.37.23-.76.79-.8.47-.04,1.07.04,1.3.11.52.17,1.07.42,1.33.91.2.37.08,1.06-.31,1.25-.4.2-1.27.24-1.65-.05h0Z"/>
          <g>
            <path class="cls-95" d="M174.72,58.8c-2.49.11-4.88,1.92-4.88,4.63,0,.66.27,1.62.39,1.8.56,1.27,2.61,2.9,4.49,2.83,1.75-.06,3.62.27,5.31.47.73-.2,1.63-.24,2.51-.22,4.22.09,8.36.06,12.41-.22,2.63-.05,6.36.06,8.91.16.85-.23,2.06-.67,2.93-1.32.29-.22.56-.49.8-.78.65-.81,1.11-2.42,1.11-2.72,0-.26-.28-1.32-.72-2.02-.64-1.01-1.58-1.95-2.33-2.22-1.18-.28-5.19-.49-6.74-.81-5.17.31-11.39.58-16.51.48-2.63.05-5.72-.01-7.69-.08h0ZM174.74,59.36c-1.15.05-2.37.36-3.19,1.11-1.23,1.14-1.71,3.04-.95,4.64.71,1.48,2.5,2.4,4.15,2.47,1.71.07,3.56.36,5.27.42.36-.1,1.66-.15,2.5-.2,3.77.22,8.06.3,12.11,0,2.78.09,6.2.07,9.2-.07.89-.04,1.95-.44,2.7-.93,1.07-.71,1.66-1.93,1.66-3.36,0-1.8-1.21-3.13-2.73-3.73-1.22-.48-5.19-.75-6.52-.78-5.58-.12-11.17.22-16.72.34-2.52.05-4.94-.01-7.46.1h0Z"/>
            <path class="cls-13" d="M174.74,59.36c-1.15.05-2.37.36-3.19,1.11-1.23,1.14-1.71,3.04-.95,4.64.71,1.48,2.5,2.4,4.15,2.47,1.71.07,3.56.36,5.27.42.36-.1,1.66-.15,2.5-.2,3.77.22,8.06.3,12.11,0,2.78.09,6.2.07,9.2-.07.89-.04,1.95-.44,2.7-.93,1.07-.71,1.66-1.93,1.66-3.36,0-1.8-1.21-3.13-2.73-3.73-1.22-.48-5.19-.75-6.52-.78-5.58-.12-11.17.22-16.72.34-2.52.05-4.94-.01-7.46.1h0Z"/>
          </g>
        </g>
        <text class="cls-105" transform="translate(172.78 65.19) scale(.71 1)"><tspan class="cls-110" x="0" y="0">R</tspan><tspan x="4.77" y="0">OLL </tspan><tspan class="cls-109" x="20.63" y="0">AG</tspan><tspan x="30.54" y="0">AIN!</tspan></text>
      </g>
    </g>
  </g>
</svg>